<svg width="720" height="720" xmlns="http://www.w3.org/2000/svg"><defs><linearGradient id="a" gradientTransform="rotate(90)"><stop offset="5%" stop-color="#fff"/><stop offset="95%" stop-color="#fff"/></linearGradient><linearGradient id="b" gradientTransform="rotate(90)"><stop offset="5%" stop-color="#a7dbd8"/><stop offset="95%" stop-color="#bde4e1"/></linearGradient><linearGradient id="c" gradientTransform="rotate(90)"><stop offset="5%" stop-color="#369438"/><stop offset="95%" stop-color="#68ae69"/></linearGradient><linearGradient id="d" gradientTransform="rotate(90)"><stop offset="5%" stop-color="#f38630"/><stop offset="95%" stop-color="#f6a463"/></linearGradient><linearGradient id="e" gradientTransform="rotate(90)"><stop offset="5%" stop-color="#fa6900"/><stop offset="95%" stop-color="#fb8e3f"/></linearGradient><linearGradient id="f" gradientTransform="rotate(90)"><stop offset="5%" stop-color="#4491de"/><stop offset="95%" stop-color="#72ace6"/></linearGradient></defs><path fill="#69d2e7" d="M0 0h720v720H0z"/><path d="M0 102c13.987-6.271 27.975-12.543 45-5 17.025 7.543 37.088 28.9 53 28 15.912-.9 27.671-24.057 43-26 15.329-1.943 34.226 17.328 52 15 17.774-2.328 34.426-26.256 49-33 14.574-6.744 27.072 3.696 41 11s29.288 11.471 47 18 37.778 15.42 54 15c16.222-.42 28.6-10.15 43-18 14.4-7.85 30.821-13.82 47-9s32.114 20.43 49 22c16.886 1.57 34.722-10.899 52-15 17.278-4.101 33.998.165 49 2 15.002 1.835 28.286 1.239 44 0 15.714-1.239 33.857-3.12 92-5l-40 618H0Z" fill="url(#a)"/><path d="M0 205c15.177 4.082 30.354 8.164 45 4s28.76-16.575 47-16c18.24.575 40.603 14.135 57 21s26.828 7.036 43 4c16.172-3.036 38.084-9.279 53-17 14.916-7.721 22.837-16.92 37-18 14.163-1.08 34.57 5.962 52 14s31.884 17.072 49 14c17.116-3.072 36.895-18.252 53-14 16.105 4.252 28.536 27.936 42 27 13.464-.936 27.961-26.491 45-33s36.619 6.029 53 13 29.564 8.377 45 8c15.436-.377 33.125-2.536 50-4s32.938-2.232 89-3l-40 515H0Z" fill="url(#b)"/><path d="M0 308c17.003-6.33 34.006-12.658 51-5 16.994 7.658 33.98 29.304 49 30 15.02.696 28.072-19.56 44-30 15.928-10.44 34.731-11.067 52-11 17.269.067 33.004.828 48-2 14.996-2.828 29.255-9.247 45-4 15.745 5.247 32.977 22.158 49 33 16.023 10.842 30.837 15.614 47 10 16.163-5.614 33.674-21.614 48-29 14.326-7.386 25.468-6.16 42 0s38.455 17.253 56 22 30.713 3.149 45-7c14.287-10.149 29.693-28.848 45-32 15.307-3.152 30.516 9.242 47 16 16.484 6.758 34.242 7.879 92 9l-40 412H0Z" fill="url(#c)"/><path d="M0 411c16.648-1.152 33.296-2.305 49 1s30.463 11.067 45 7c14.537-4.067 28.851-19.962 44-21 15.149-1.038 31.133 12.78 49 16 17.867 3.22 37.617-4.158 55-8 17.383-3.842 32.398-4.147 48-4 15.602.147 31.79.746 49 9s35.445 24.161 50 24c14.555-.161 25.432-16.391 39-20 13.568-3.609 29.826 5.405 46 2 16.174-3.405 32.262-19.227 51-22 18.738-2.773 40.126 7.504 55 18 14.874 10.496 23.235 21.21 38 15 14.765-6.21 35.933-29.346 54-35s33.034 6.173 88 18l-40 309H0Z" fill="url(#d)"/><path d="M0 514c17.37-2.661 34.741-5.322 50-5 15.259.322 28.405 3.627 45 10s36.638 15.814 52 11c15.362-4.814 26.044-23.883 42-31 15.956-7.117 37.185-2.283 54 6 16.815 8.283 29.215 20.014 45 23 15.785 2.986 34.953-2.774 51-8 16.047-5.226 28.97-9.919 45-6 16.03 3.919 35.164 16.45 51 10 15.836-6.45 28.374-31.88 43-34 14.626-2.12 31.339 19.073 48 28s33.27 5.589 48 0c14.73-5.589 27.581-13.428 44-9 16.419 4.428 36.405 21.122 54 24s32.797-8.061 88-19l-40 206H0Z" fill="url(#e)"/><path d="M0 617c17.628-10.807 35.256-21.613 51-14 15.744 7.613 29.603 33.647 43 34 13.397.353 26.332-24.975 44-27 17.668-2.025 40.068 19.255 59 22 18.932 2.745 34.395-13.043 48-14 13.605-.957 25.353 12.917 41 11 15.647-1.917 35.194-19.624 51-25 15.806-5.376 27.87 1.58 43 2 15.13.42 33.324-5.699 52 2 18.676 7.699 37.833 29.214 53 25 15.167-4.214 26.343-34.157 40-41 13.657-6.843 29.795 9.413 48 19s38.478 12.504 56 16c17.522 3.496 32.292 7.57 47 6 14.708-1.57 29.354-8.785 84-16l-40 103H0Z" fill="url(#f)"/></svg>